PathFileType	4	(x/y/z)	S09_P20_T27
DataRate	CameraRate	NumFrames	NumMarkers	Units	OrigDataRate	OrigDataStartFrame	OrigNumFrames
240	240	11	51	mm	240	296	394
Frame#	Time	Sternum			R.Acromium			L.Acromium			Top.Head			R.ASIS			L.ASIS			R.PSIS			L.PSIS			R.Great.Tro			L.Great.Tro			R.Iliac.Crest			L.Iliac.Crest			V.Sacral			R.Thigh.Upper.Post			R.Thigh.Lower.Ant			R.Thigh.Lower.Post			R.Thigh.Upper.Ant			R.Knee.Lat			R.Knee.Med			R.Shank.Upper.Post			R.Shank.Lower.Ant			R.Shank.Lower.Post			R.Shank.Upper.Ant			R.Ankle.Lat			R.Ankle.Med			R.Heel.Upper			R.Heel.Med			R.Heel.Lat			R.Toe.Lat			R.Toe.Med			R.Toe.Tip			L.Thigh.Upper.Post			L.Thigh.Lower.Ant			L.Thigh.Lower.Post			L.Thigh.Upper.Ant			L.Knee.Lat			L.Knee.Med			L.Shank.Upper.Post			L.Shank.Lower.Ant			L.Shank.Lower.Post			L.Shank.Upper.Ant			L.Ankle.Lat			L.Ankle.Med			L.Heel.Upper			L.Heel.Med			L.Heel.Lat			L.Toe.Lat			L.Toe.Med			L.Toe.Tip			Cervical.Spine			Back			
		X1	Y1	Z1	X2	Y2	Z2	X3	Y3	Z3	X4	Y4	Z4	X5	Y5	Z5	X6	Y6	Z6	X7	Y7	Z7	X8	Y8	Z8	X9	Y9	Z9	X10	Y10	Z10	X11	Y11	Z11	X12	Y12	Z12	X13	Y13	Z13	X14	Y14	Z14	X15	Y15	Z15	X16	Y16	Z16	X17	Y17	Z17	X18	Y18	Z18	X19	Y19	Z19	X20	Y20	Z20	X21	Y21	Z21	X22	Y22	Z22	X23	Y23	Z23	X24	Y24	Z24	X25	Y25	Z25	X26	Y26	Z26	X27	Y27	Z27	X28	Y28	Z28	X29	Y29	Z29	X30	Y30	Z30	X31	Y31	Z31	X32	Y32	Z32	X33	Y33	Z33	X34	Y34	Z34	X35	Y35	Z35	X36	Y36	Z36	X37	Y37	Z37	X38	Y38	Z38	X39	Y39	Z39	X40	Y40	Z40	X41	Y41	Z41	X42	Y42	Z42	X43	Y43	Z43	X44	Y44	Z44	X45	Y45	Z45	X46	Y46	Z46	X47	Y47	Z47	X48	Y48	Z48	X49	Y49	Z49	X50	Y50	Z50	X51	Y51	Z51	

296	1.2292	296	1194.1	286.98	160.63	1433.5	437.3	167.33	1446.8	125.22	168.26	1750.2	281.72	223.26	1020.6	386.52	233.54	1029.3	142.28	6.8809	1047.8	303.68	17.373	1052.9	214.66	138.32	935.92	458.25	163.21	939.6	72.084	137.5	1100.8	427.13	133.66	1125.9	106.52	-7.0271	1014.9	254.23	182.61	691.08	447.51	273.74	601.96	427.07	194.84	598.97	426.14	254.83	689.32	445.91	252.71	516.65	418.79	265.94	505.36	296.61	91.605	429.03	410.05	100.29	337.88	401.92	38.534	375.09	395.63	146.59	393.95	416.4	-68.778	226.67	370.3	-30.305	209.04	288.87	-119.62	252.94	307.15	-132.08	220.84	279.06	-144	232.55	341.6	-50.233	114.59	414.11	-0.93879	79.689	319.78	38.389	61.856	369.31	123.22	677.69	127.17	213.32	588.97	129.99	146	590.53	148.1	192.35	672.24	104.38	207.47	509.25	143.61	225.17	527.18	274.88	160.64	377.28	134.01	221.36	286.9	152.9	158.67	300.83	143.41	222.48	364.41	144.78	170.86	104.11	172.84	184.54	99.042	265.67	97.829	72.65	224.43	109.78	48.749	257.81	98.414	43.799	197.1	271.9	42.656	143.65	309.22	43.135	253.65	360.48	58.992	193.7	75.175	1493.3	289.86	31.072	1228.8	265.03
297	1.2333	301.5	1194.7	287.03	166.06	1434.1	437.23	173.06	1447.5	125.13	174.07	1750.8	281.72	228.28	1021.5	386.29	239	1029.6	142.13	12.078	1048.8	303.01	22.772	1053.8	214.02	143.4	936.86	457.84	168.24	940.01	71.952	142.48	1101.7	426.6	139.47	1126.5	106.05	-1.7745	1015.8	253.57	190.72	692.4	447.46	282.62	604.19	426.54	203.71	600.41	426.23	263.02	691.35	445.44	262.27	518.56	418.43	275.14	507.4	296.19	101.98	428.77	409.99	111.92	337.76	401.88	49.634	374.09	395.74	157.46	394.47	416.22	-55.803	224.38	370.58	-17.044	207.21	289.12	-107.54	248.97	307.37	-119.23	216.34	279.57	-131.25	228.22	342.08	-34.2	113.26	415.19	15.703	78.958	320.92	55.594	62.352	370.52	126.49	678.5	126.95	216.02	589.12	129.75	148.7	591.14	147.81	195.6	672.58	104.19	209.55	509.35	143.41	227.43	527.11	274.64	162.05	377.51	133.86	222.39	286.89	152.8	159.75	301.08	143.3	223.84	364.4	144.63	171.07	104.26	172.89	184.77	99.237	265.68	97.899	72.801	224.52	109.77	48.844	257.83	98.479	44.011	197.14	271.95	42.623	143.64	309.31	43.056	253.62	360.59	58.754	193.64	80.808	1494	289.69	36.578	1229.6	264.51
298	1.2375	306.98	1195.3	287.09	171.48	1434.7	437.15	178.8	1448.3	125.04	179.87	1751.5	281.74	233.28	1022.3	386.1	244.47	1030	142.02	17.263	1049.7	302.36	28.164	1054.7	213.39	148.48	937.8	457.45	173.25	940.41	71.842	147.42	1102.6	426.1	145.29	1127	105.62	3.4698	1016.8	252.93	198.77	693.74	447.4	291.41	606.42	425.98	212.5	601.86	426.29	271.14	693.38	444.94	271.74	520.48	418.03	284.26	509.43	295.76	112.33	428.41	409.93	123.58	337.56	401.86	60.769	372.96	395.85	168.32	394.94	416.07	-42.648	221.86	370.89	-3.5844	205.17	289.42	-95.224	244.73	307.62	-106.12	211.6	280.1	-118.27	223.63	342.57	-18.003	111.77	416.28	32.543	78.105	322.08	72.956	62.774	371.77	129.77	679.3	126.71	218.7	589.28	129.52	151.39	591.76	147.5	198.84	672.92	104	211.6	509.46	143.21	229.68	527.05	274.41	163.42	377.73	133.71	223.39	286.89	152.69	160.79	301.33	143.19	225.16	364.39	144.46	171.28	104.42	172.93	185.01	99.442	265.69	97.965	72.95	224.62	109.76	48.937	257.86	98.543	44.221	197.18	272	42.587	143.62	309.4	42.984	253.59	360.71	58.518	193.59	86.441	1494.7	289.52	42.09	1230.3	263.99
299	1.2417	312.44	1195.9	287.17	176.91	1435.3	437.08	184.55	1449	124.97	185.66	1752.1	281.77	238.28	1023.2	385.94	249.94	1030.3	141.92	22.438	1050.6	301.72	33.545	1055.6	212.78	153.58	938.73	457.1	178.27	940.82	71.75	152.33	1103.5	425.62	151.12	1127.6	105.23	8.7067	1017.7	252.31	206.75	695.07	447.32	300.11	608.63	425.38	221.2	603.31	426.32	279.18	695.38	444.43	281.11	522.41	417.61	293.28	511.46	295.32	122.67	427.96	409.86	135.29	337.3	401.87	71.937	371.72	395.95	179.17	395.36	415.93	-29.312	219.13	371.23	10.072	202.94	289.77	-82.68	240.25	307.89	-92.729	206.63	280.67	-105.05	218.81	343.09	-1.6453	110.13	417.38	49.574	77.147	323.27	90.463	63.132	373.03	133.05	680.09	126.46	221.38	589.43	129.28	154.09	592.37	147.2	202.07	673.25	103.81	213.63	509.57	143.01	231.91	526.99	274.17	164.76	377.96	133.58	224.36	286.89	152.56	161.81	301.57	143.1	226.44	364.39	144.29	171.49	104.58	172.97	185.26	99.657	265.69	98.027	73.097	224.71	109.75	49.027	257.88	98.608	44.428	197.23	272.05	42.549	143.61	309.49	42.916	253.54	360.83	58.285	193.52	92.073	1495.4	289.35	47.607	1231.1	263.47
300	1.2458	317.89	1196.5	287.27	182.34	1435.9	437	190.32	1449.7	124.91	191.44	1752.7	281.81	243.27	1024	385.8	255.4	1030.6	141.86	27.604	1051.5	301.1	38.916	1056.5	212.19	158.7	939.66	456.77	183.28	941.21	71.671	157.22	1104.3	425.18	156.96	1128.1	104.86	13.937	1018.6	251.71	214.65	696.4	447.23	308.71	610.82	424.75	229.82	604.76	426.31	287.14	697.37	443.9	290.37	524.33	417.15	302.2	513.47	294.87	132.98	427.41	409.8	147.03	336.97	401.9	83.137	370.36	396.04	190.01	395.74	415.82	-15.792	216.2	371.62	23.922	200.52	290.15	-69.902	235.56	308.2	-79.076	201.47	281.26	-91.595	213.77	343.64	14.87	108.37	418.5	66.785	76.101	324.47	108.1	63.435	374.3	136.33	680.88	126.21	224.06	589.58	129.06	156.77	592.99	146.89	205.3	673.58	103.61	215.65	509.67	142.82	234.1	526.94	273.95	166.07	378.19	133.47	225.31	286.9	152.44	162.81	301.83	143.02	227.7	364.39	144.12	171.7	104.74	173.01	185.5	99.879	265.69	98.087	73.24	224.81	109.73	49.113	257.91	98.673	44.633	197.28	272.09	42.512	143.59	309.58	42.85	253.5	360.95	58.052	193.46	97.704	1496	289.18	53.129	1231.9	262.95
301	1.25	323.32	1197	287.38	187.77	1436.4	436.93	196.1	1450.3	124.86	197.22	1753.2	281.87	248.26	1024.8	385.69	260.86	1031	141.81	32.761	1052.3	300.51	44.274	1057.4	211.61	163.83	940.57	456.48	188.29	941.6	71.6	162.09	1105.2	424.76	162.8	1128.6	104.54	19.162	1019.4	251.13	222.48	697.72	447.12	317.21	612.98	424.1	238.33	606.2	426.27	295.02	699.32	443.35	299.52	526.25	416.68	311.02	515.46	294.42	143.27	426.77	409.74	158.8	336.58	401.97	94.37	368.89	396.13	200.83	396.06	415.73	-2.0869	213.08	372.04	37.965	197.95	290.58	-56.888	230.65	308.54	-65.157	196.12	281.89	-77.897	208.54	344.21	31.539	106.49	419.62	84.17	74.983	325.68	125.87	63.692	375.58	139.61	681.64	125.95	226.74	589.72	128.84	159.45	593.59	146.58	208.51	673.89	103.43	217.64	509.77	142.64	236.28	526.89	273.74	167.36	378.41	133.37	226.23	286.91	152.31	163.79	302.08	142.95	228.92	364.4	143.94	171.91	104.91	173.05	185.75	100.11	265.69	98.146	73.378	224.92	109.71	49.194	257.94	98.74	44.833	197.33	272.14	42.475	143.58	309.68	42.785	253.45	361.07	57.819	193.4	103.33	1496.6	289.02	58.657	1232.6	262.43
302	1.2542	328.73	1197.6	287.51	193.21	1437	436.85	201.89	1451	124.81	202.98	1753.8	281.94	253.24	1025.6	385.6	266.31	1031.3	141.78	37.911	1053.2	299.95	49.618	1058.3	211.06	168.99	941.46	456.21	193.31	941.97	71.533	166.95	1105.9	424.38	168.64	1129.1	104.24	24.381	1020.3	250.58	230.23	699.02	446.99	325.59	615.11	423.43	246.74	607.63	426.2	302.8	701.23	442.78	308.55	528.15	416.2	319.71	517.43	293.98	153.54	426.04	409.68	170.61	336.13	402.05	105.64	367.31	396.22	211.63	396.34	415.66	11.804	209.8	372.49	52.199	195.23	291.05	-43.637	225.57	308.93	-50.973	190.62	282.55	-63.954	203.12	344.81	48.362	104.51	420.76	101.72	73.81	326.9	143.75	63.914	376.86	142.9	682.38	125.7	229.41	589.86	128.64	162.12	594.19	146.29	211.73	674.19	103.25	219.62	509.87	142.47	238.41	526.85	273.56	168.63	378.64	133.3	227.14	286.92	152.19	164.75	302.33	142.9	230.13	364.41	143.77	172.12	105.07	173.1	186	100.34	265.69	98.206	73.512	225.03	109.7	49.269	257.99	98.807	45.029	197.38	272.19	42.441	143.56	309.77	42.718	253.4	361.19	57.587	193.34	108.96	1497.2	288.86	64.19	1233.4	261.92
303	1.2583	334.13	1198.2	287.65	198.64	1437.5	436.78	207.7	1451.7	124.78	208.74	1754.3	282.02	258.21	1026.4	385.53	271.75	1031.5	141.76	43.056	1053.9	299.42	54.946	1059.1	210.53	174.17	942.33	455.98	198.34	942.33	71.469	171.8	1106.7	424.04	174.46	1129.6	103.97	29.597	1021.1	250.06	237.89	700.3	446.84	333.86	617.19	422.74	255.05	609.03	426.09	310.48	703.1	442.21	317.45	530.03	415.69	328.29	519.37	293.53	163.79	425.2	409.61	182.44	335.62	402.17	116.93	365.63	396.3	222.41	396.58	415.61	25.883	206.36	372.99	66.623	192.38	291.55	-30.145	220.32	309.35	-36.526	184.99	283.25	-49.762	197.55	345.45	65.333	102.44	421.9	119.43	72.596	328.12	161.74	64.111	378.12	146.19	683.1	125.46	232.07	589.98	128.45	164.79	594.78	146.01	214.93	674.48	103.09	221.59	509.96	142.31	240.52	526.8	273.39	169.89	378.86	133.24	228.05	286.94	152.07	165.72	302.58	142.87	231.32	364.42	143.61	172.33	105.24	173.16	186.25	100.57	265.69	98.268	73.642	225.14	109.69	49.337	258.04	98.875	45.22	197.44	272.24	42.409	143.55	309.87	42.649	253.35	361.31	57.355	193.28	114.59	1497.8	288.7	69.727	1234.1	261.42
304	1.2625	339.51	1198.8	287.8	204.07	1438.1	436.71	213.52	1452.3	124.76	214.48	1754.8	282.11	263.19	1027.2	385.46	277.17	1031.8	141.75	48.195	1054.7	298.92	60.256	1059.9	210.03	179.38	943.18	455.79	203.38	942.66	71.403	176.64	1107.4	423.73	180.27	1130.1	103.74	34.808	1021.9	249.57	245.46	701.56	446.68	342	619.22	422.03	263.23	610.41	425.95	318.06	704.93	441.62	326.22	531.89	415.18	336.73	521.27	293.09	174.02	424.28	409.55	194.3	335.06	402.31	128.27	363.84	396.38	233.17	396.77	415.57	40.152	202.78	373.53	81.236	189.42	292.1	-16.412	214.92	309.82	-21.815	179.24	283.98	-35.321	191.83	346.12	82.451	100.3	423.04	137.29	71.358	329.34	179.83	64.291	379.38	149.5	683.79	125.23	234.74	590.08	128.28	167.46	595.36	145.75	218.14	674.74	102.94	223.56	510.05	142.17	242.6	526.77	273.25	171.14	379.09	133.2	228.94	286.95	151.97	166.68	302.83	142.86	232.51	364.42	143.46	172.56	105.41	173.22	186.49	100.8	265.7	98.333	73.766	225.26	109.7	49.4	258.09	98.945	45.405	197.51	272.29	42.38	143.55	309.97	42.577	253.3	361.43	57.124	193.22	120.22	1498.3	288.54	75.269	1234.8	260.93
305	1.2667	344.87	1199.3	287.96	209.51	1438.6	436.64	219.35	1452.9	124.74	220.22	1755.2	282.21	268.17	1027.9	385.41	282.58	1032	141.75	53.331	1055.4	298.46	65.548	1060.7	209.56	184.61	944	455.63	208.44	942.98	71.334	181.48	1108.1	423.45	186.05	1130.5	103.53	40.017	1022.6	249.12	252.93	702.79	446.49	350.01	621.2	421.32	271.3	611.76	425.78	325.52	706.7	441.02	334.85	533.71	414.66	345.04	523.12	292.65	184.22	423.26	409.49	206.19	334.46	402.47	139.64	361.95	396.47	243.89	396.92	415.55	54.61	199.08	374.09	96.037	186.36	292.68	-2.4334	209.39	310.33	-6.8401	173.4	284.74	-20.628	185.99	346.82	99.713	98.093	424.18	155.29	70.108	330.55	198.02	64.463	380.62	152.81	684.46	125.02	237.39	590.17	128.13	170.13	595.93	145.5	221.34	674.99	102.8	225.52	510.13	142.04	244.65	526.73	273.13	172.39	379.31	133.19	229.84	286.97	151.88	167.65	303.08	142.86	233.69	364.43	143.33	172.78	105.58	173.29	186.74	101.03	265.72	98.403	73.886	225.39	109.71	49.457	258.16	99.016	45.584	197.58	272.34	42.356	143.54	310.07	42.501	253.25	361.55	56.893	193.17	125.84	1498.9	288.39	80.814	1235.5	260.45
306	1.2708	350.23	1199.9	288.14	214.94	1439.1	436.57	225.19	1453.5	124.74	225.95	1755.6	282.32	273.15	1028.5	385.36	287.97	1032.2	141.76	58.464	1056.1	298.04	70.819	1061.4	209.11	189.88	944.79	455.5	213.51	943.27	71.261	186.33	1108.7	423.21	191.82	1130.9	103.35	45.225	1023.3	248.7	260.31	703.98	446.29	357.89	623.11	420.59	279.24	613.08	425.59	332.87	708.42	440.42	343.34	535.49	414.13	353.22	524.94	292.22	194.41	422.15	409.43	218.1	333.8	402.65	151.05	359.96	396.56	254.59	397.02	415.55	69.261	195.27	374.7	111.02	183.22	293.3	11.791	203.76	310.88	8.3976	167.49	285.54	-5.6815	180.05	347.56	117.11	95.838	425.32	173.43	68.859	331.75	216.29	64.637	381.85	156.12	685.1	124.84	240.05	590.25	128	172.8	596.48	145.28	224.54	675.21	102.69	227.47	510.2	141.94	246.67	526.7	273.04	173.64	379.53	133.18	230.75	286.99	151.81	168.62	303.33	142.88	234.88	364.43	143.22	173.01	105.76	173.37	186.98	101.26	265.75	98.477	74.001	225.52	109.74	49.508	258.24	99.089	45.757	197.66	272.39	42.335	143.54	310.17	42.42	253.2	361.67	56.663	193.12	131.47	1499.3	288.23	86.362	1236.1	259.97
